<?xml version="1.0" encoding="utf-8"?>
<!-- Generator: Adobe Illustrator 16.0.3, SVG Export Plug-In . SVG Version: 6.00 Build 0)  -->
<svg version="1.2" baseProfile="tiny" id="Ebene_1" xmlns="http://www.w3.org/2000/svg" xmlns:xlink="http://www.w3.org/1999/xlink"
	 x="0px" y="0px" width="256px" height="256px" viewBox="0 0 256 256" overflow="scroll" xml:space="preserve">
<g>
	<path fill="#FFFFFF" d="M254.251,124.862l-10.747-6.653c-0.091-1.047-0.193-2.091-0.306-3.131l9.235-8.614
		c0.939-0.876,1.36-2.172,1.105-3.427c-0.246-1.26-1.13-2.297-2.33-2.745l-11.807-4.415c-0.297-1.022-0.607-2.038-0.925-3.048
		l7.364-10.229c0.751-1.04,0.905-2.392,0.416-3.578c-0.489-1.182-1.559-2.028-2.822-2.236l-12.45-2.025
		c-0.483-0.944-0.987-1.874-1.497-2.796l5.232-11.483c0.535-1.169,0.426-2.529-0.289-3.591c-0.711-1.066-1.918-1.69-3.204-1.641
		l-12.636,0.44c-0.652-0.817-1.318-1.627-1.996-2.422l2.904-12.308c0.293-1.25-0.076-2.559-0.986-3.466
		c-0.902-0.905-2.213-1.279-3.463-0.986l-12.306,2.901c-0.798-0.675-1.606-1.343-2.427-1.996l0.443-12.635
		c0.049-1.279-0.575-2.495-1.642-3.204c-1.069-0.714-2.421-0.822-3.589-0.292l-11.48,5.234c-0.928-0.509-1.856-1.013-2.796-1.499
		l-2.03-12.452c-0.205-1.262-1.051-2.333-2.235-2.823c-1.181-0.492-2.536-0.333-3.575,0.416l-10.236,7.365
		c-1.008-0.32-2.021-0.628-3.043-0.922L155.72,4.794c-0.448-1.203-1.485-2.086-2.745-2.336c-1.256-0.247-2.551,0.171-3.424,1.105
		l-8.614,9.243c-1.04-0.115-2.087-0.22-3.131-0.306l-6.653-10.75C130.48,0.663,129.289,0,128.007,0s-2.473,0.663-3.143,1.751
		l-6.653,10.75c-1.047,0.086-2.094,0.191-3.133,0.306l-8.617-9.243c-0.874-0.934-2.17-1.353-3.424-1.105
		c-1.26,0.252-2.297,1.133-2.745,2.336l-4.415,11.809c-1.022,0.293-2.035,0.604-3.045,0.922L82.599,10.16
		c-1.04-0.75-2.395-0.91-3.578-0.416c-1.182,0.489-2.03,1.561-2.236,2.823l-2.03,12.452c-0.939,0.486-1.869,0.988-2.796,1.499
		l-11.481-5.234c-1.167-0.533-2.527-0.423-3.588,0.292c-1.066,0.709-1.69,1.925-1.641,3.204l0.44,12.635
		c-0.817,0.653-1.627,1.321-2.427,1.996L40.957,36.51c-1.25-0.291-2.561,0.081-3.466,0.986c-0.91,0.907-1.279,2.216-0.986,3.466
		l2.898,12.308c-0.673,0.797-1.338,1.604-1.991,2.422l-12.635-0.44c-1.274-0.037-2.493,0.575-3.204,1.641
		c-0.714,1.062-0.822,2.421-0.292,3.591l5.234,11.483c-0.509,0.922-1.013,1.852-1.499,2.796l-12.45,2.025
		c-1.264,0.206-2.331,1.052-2.822,2.236c-0.489,1.186-0.33,2.539,0.416,3.578l7.365,10.229c-0.32,1.01-0.631,2.025-0.924,3.048
		l-11.809,4.415c-1.198,0.448-2.082,1.485-2.331,2.745c-0.25,1.257,0.169,2.551,1.105,3.427l9.238,8.614
		c-0.115,1.04-0.217,2.086-0.306,3.131l-10.747,6.653C0.663,125.535,0,126.723,0,128.007c0,1.284,0.663,2.473,1.751,3.143
		l10.747,6.652c0.088,1.047,0.191,2.092,0.306,3.131l-9.238,8.617c-0.937,0.873-1.355,2.17-1.105,3.424
		c0.25,1.26,1.133,2.295,2.331,2.745l11.809,4.415c0.293,1.021,0.604,2.037,0.924,3.047l-7.365,10.232
		c-0.748,1.041-0.907,2.395-0.416,3.575c0.492,1.187,1.561,2.032,2.825,2.235l12.447,2.025c0.486,0.944,0.985,1.873,1.499,2.801
		l-5.234,11.479c-0.533,1.167-0.423,2.524,0.292,3.591c0.714,1.069,1.93,1.692,3.204,1.642l12.63-0.443
		c0.658,0.822,1.321,1.627,1.996,2.427l-2.898,12.31c-0.293,1.248,0.076,2.552,0.986,3.459c0.902,0.912,2.216,1.277,3.466,0.983
		l12.305-2.898c0.8,0.681,1.609,1.341,2.427,1.991l-0.44,12.638c-0.049,1.279,0.575,2.493,1.641,3.206
		c1.062,0.713,2.421,0.82,3.588,0.287l11.481-5.232c0.925,0.514,1.854,1.014,2.796,1.5l2.03,12.444
		c0.206,1.267,1.052,2.339,2.236,2.825c1.181,0.492,2.539,0.332,3.578-0.413l10.229-7.37c1.01,0.32,2.025,0.634,3.048,0.928
		l4.415,11.804c0.448,1.198,1.485,2.087,2.745,2.331c1.257,0.254,2.551-0.166,3.424-1.105l8.617-9.238
		c1.04,0.119,2.086,0.22,3.133,0.313l6.653,10.748c0.67,1.083,1.861,1.751,3.143,1.751c1.282,0,2.473-0.665,3.146-1.751
		l6.652-10.748c1.047-0.093,2.092-0.193,3.131-0.313l8.615,9.238c0.873,0.939,2.17,1.359,3.424,1.105
		c1.26-0.247,2.297-1.133,2.744-2.331l4.416-11.804c1.021-0.294,2.037-0.607,3.047-0.928l10.231,7.37
		c1.04,0.745,2.395,0.905,3.575,0.413c1.185-0.486,2.031-1.561,2.236-2.825l2.029-12.444c0.939-0.486,1.869-0.993,2.797-1.5
		l11.48,5.232c1.167,0.533,2.524,0.426,3.588-0.287c1.066-0.713,1.688-1.924,1.642-3.206l-0.44-12.638
		c0.817-0.653,1.627-1.311,2.424-1.991l12.306,2.898c1.25,0.294,2.562-0.071,3.464-0.983c0.91-0.907,1.279-2.211,0.985-3.459
		l-2.898-12.31c0.675-0.8,1.341-1.604,1.991-2.427l12.635,0.443c1.275,0.051,2.493-0.572,3.205-1.642
		c0.714-1.066,0.824-2.424,0.289-3.591l-5.232-11.479c0.512-0.928,1.013-1.856,1.496-2.801l12.45-2.025
		c1.267-0.203,2.333-1.049,2.823-2.235c0.488-1.181,0.334-2.534-0.416-3.575l-7.365-10.232c0.318-1.01,0.629-2.025,0.925-3.047
		l11.807-4.415c1.2-0.45,2.087-1.485,2.331-2.745c0.254-1.256-0.166-2.551-1.105-3.424l-9.236-8.617
		c0.113-1.039,0.215-2.086,0.307-3.131l10.746-6.652c1.09-0.67,1.752-1.861,1.752-3.143S255.34,125.535,254.251,124.862
		L254.251,124.862z M182.318,214.018c-4.104-0.885-6.713-4.93-5.833-9.047c0.878-4.111,4.921-6.729,9.022-5.844
		c4.105,0.879,6.72,4.932,5.84,9.041C190.467,212.277,186.421,214.896,182.318,214.018L182.318,214.018z M178.668,189.319
		c-3.746-0.802-7.43,1.58-8.231,5.332l-3.815,17.806c-11.775,5.346-24.851,8.314-38.621,8.314c-14.086,0-27.446-3.116-39.431-8.688
		l-3.813-17.807c-0.803-3.748-4.486-6.135-8.229-5.33l-15.72,3.375c-2.918-3.003-5.633-6.202-8.128-9.58h76.489
		c0.866,0,1.443-0.156,1.443-0.944v-27.057c0-0.788-0.577-0.944-1.443-0.944h-22.37v-17.15h24.195
		c2.209,0,11.809,0.631,14.879,12.902c0.961,3.773,3.071,16.05,4.515,19.98c1.438,4.408,7.294,13.213,13.533,13.213h38.114
		c0.434,0,0.896-0.049,1.383-0.137c-2.645,3.593-5.545,6.992-8.669,10.17L178.668,189.319L178.668,189.319z M72.876,213.646
		c-4.104,0.885-8.145-1.732-9.028-5.844c-0.878-4.119,1.732-8.162,5.836-9.047c4.104-0.879,8.147,1.738,9.028,5.851
		C79.59,208.715,76.978,212.766,72.876,213.646L72.876,213.646z M43.86,95.985c1.702,3.843-0.029,8.346-3.867,10.045
		c-3.837,1.705-8.328-0.029-10.031-3.875c-1.702-3.845,0.029-8.34,3.867-10.045C37.669,90.409,42.158,92.14,43.86,95.985
		L43.86,95.985z M34.942,117.125l16.375-7.277c3.498-1.553,5.078-5.652,3.524-9.157l-3.373-7.626h13.264v59.789H37.973
		c-2.321-8.16-3.566-16.771-3.566-25.673C34.407,123.783,34.59,120.425,34.942,117.125L34.942,117.125z M106.804,111.319V93.696
		h31.587c1.631,0,11.52,1.886,11.52,9.28c0,6.14-7.584,8.341-13.821,8.341h-29.285V111.319z M221.596,127.181
		c0,2.339-0.086,4.652-0.257,6.948h-9.603c-0.961,0-1.348,0.632-1.348,1.573v4.41c0,10.38-5.854,12.638-10.982,13.213
		c-4.885,0.55-10.3-2.045-10.967-5.034c-2.882-16.207-7.684-19.668-15.266-25.647c9.409-5.976,19.2-14.791,19.2-26.59
		c0-12.741-8.734-20.766-14.688-24.701c-8.353-5.506-17.601-6.609-20.096-6.609H58.279c13.467-15.03,31.719-25.677,52.362-29.552
		l11.707,12.281c2.646,2.771,7.029,2.874,9.799,0.225l13.098-12.528c27.445,5.109,50.682,22.194,64.072,45.634l-8.966,20.252
		c-1.548,3.505,0.032,7.604,3.526,9.158l17.264,7.668C221.439,120.946,221.596,124.042,221.596,127.181L221.596,127.181z
		 M122.353,24.746c3.033-2.906,7.844-2.791,10.747,0.247c2.898,3.045,2.789,7.861-0.252,10.765
		c-3.033,2.906-7.844,2.793-10.747-0.25C119.205,32.467,119.314,27.651,122.353,24.746L122.353,24.746z M211.335,96.354
		c1.7-3.842,6.19-5.577,10.028-3.872c3.838,1.702,5.569,6.203,3.867,10.045c-1.7,3.845-6.191,5.579-10.031,3.874
		C211.367,104.7,209.635,100.202,211.335,96.354L211.335,96.354z"/>
</g>
</svg>
